<svg width="25" height="25" viewBox="0 0 25 25" fill="white" xmlns="http://www.w3.org/2000/svg">
<path d="M12.5 1C6.15465 1 1 6.15465 1 12.5C1 18.8454 6.15465 24 12.5 24C18.8454 24 24 18.8454 24 12.5C24 6.15465 18.8454 1 12.5 1ZM12.5 2C18.3049 2 23 6.69509 23 12.5C23 18.3049 18.3049 23 12.5 23C6.69509 23 2 18.3049 2 12.5C2 6.69509 6.69509 2 12.5 2ZM13 5.5C12.5243 5.5 12.1603 5.82351 11.9248 6.1875C11.6893 6.55149 11.5248 7.00163 11.3916 7.51465C11.1252 8.54069 11 9.81777 11 11C11 11.4946 11.0942 11.8523 11.1338 12.292C11.122 12.2863 11.1143 12.2701 11.1025 12.2646C10.718 12.0865 10.3379 12 10 12C9.58025 12 8.86357 12.1067 8.20117 12.6201C7.53878 13.1336 7 14.0698 7 15.5C7 16.6882 7.38698 17.587 7.97168 18.167C8.55638 18.747 9.30991 19 10 19C11.2829 19 12.3272 18.3479 13.1084 17.3818C13.5488 17.7585 14.0157 18 14.5 18C15.4167 18 16.0617 17.316 16.4961 16.5615C16.9304 15.8071 17.2246 14.9082 17.4746 14.1582C17.4954 14.0959 17.5037 14.0301 17.4991 13.9645C17.4944 13.899 17.4769 13.835 17.4475 13.7762C17.4181 13.7174 17.3775 13.665 17.3278 13.622C17.2782 13.5789 17.2206 13.5461 17.1582 13.5253C17.0959 13.5045 17.0301 13.4962 16.9645 13.5009C16.899 13.5055 16.835 13.5231 16.7763 13.5525C16.7175 13.5818 16.6651 13.6225 16.622 13.6722C16.579 13.7218 16.5462 13.7795 16.5254 13.8418C16.2754 14.5918 15.9862 15.4429 15.6289 16.0635C15.2716 16.684 14.9168 17 14.5 17C14.314 17 14.0064 16.8173 13.6748 16.5166C13.7191 16.4389 13.7767 16.3737 13.8184 16.2939C14.6192 14.759 15 12.8214 15 11C15 9.45256 14.7826 8.15792 14.4658 7.21582C14.3074 6.74477 14.1276 6.36136 13.9111 6.06445C13.6946 5.76755 13.4195 5.5 13 5.5ZM12.9688 6.51465C12.9911 6.53202 13.0406 6.56929 13.1025 6.6543C13.2278 6.82614 13.3827 7.13023 13.5186 7.53418C13.7902 8.34208 14 9.54744 14 11C14 12.6223 13.6396 14.3527 12.9854 15.6777C12.4412 14.7111 12 13.175 12 11C12 9.89073 12.1254 8.66768 12.3594 7.7666C12.4764 7.31606 12.6253 6.94593 12.7646 6.73047C12.8746 6.56051 12.9333 6.52617 12.9688 6.51465ZM10 13C10.1426 13 10.4295 13.0546 10.6826 13.1719C10.9357 13.2892 11.1543 13.4634 11.2666 13.6543C11.2698 13.6596 11.273 13.6648 11.2764 13.6699C11.4754 14.6711 11.7524 15.5358 12.1191 16.1836C12.2002 16.3268 12.3059 16.3881 12.3926 16.5156C11.7553 17.382 11.0021 18 10 18C9.55459 18 9.05819 17.8354 8.67676 17.457C8.29533 17.0787 8 16.4783 8 15.5C8 14.3052 8.38835 13.7414 8.81445 13.4111C9.24056 13.0808 9.77375 13 10 13Z" fill="#71633a"/>
</svg>
