<svg width="42" height="37" viewBox="0 0 42 37" fill="#e4d4bd" xmlns="http://www.w3.org/2000/svg">
<g clip-path="url(#clip0_29_331)">
<path d="M16.6998 23.2168C16.0848 23.7895 15.6401 24.2362 15.1622 24.6431C13.6826 25.9026 12.1101 26.9863 10.079 27.1857C8.66569 27.3243 7.42365 26.9555 6.35655 26.0295C5.08689 24.9249 4.26746 23.5213 3.70215 21.8966C3.93601 22.0615 4.17355 22.221 4.40281 22.3932C6.32709 23.8357 8.37106 23.8212 10.4795 22.8553C11.8164 22.2418 12.9074 21.294 13.8732 20.2148C14.6549 19.3413 15.3408 18.3844 16.1363 17.5245C17.2909 16.2759 18.4013 14.9547 19.7206 13.8946C21.5151 12.4529 23.5278 12.6151 25.3186 14.0758C26.4584 15.0055 27.2824 16.1726 27.8965 17.4901C28.0733 17.8698 28.2308 18.2594 28.4701 18.8167C28.9434 18.3935 29.3292 18.0582 29.7039 17.7121C31.0104 16.5033 32.4366 15.5084 34.1951 15.0082C35.9012 14.5234 37.3835 14.9176 38.7066 15.985C40.1503 17.1503 41.1336 18.6454 41.9972 20.7069C41.5626 20.3961 41.4089 20.3208 41.3002 20.2049C39.3511 18.1208 36.6967 18.1008 34.3719 19.412C33.1842 20.0816 32.1254 21.043 31.1724 22.0298C30.0271 23.2141 29.1036 24.605 27.9941 25.8265C27.2125 26.6873 26.359 27.5255 25.4014 28.1824C23.3289 29.6023 21.0271 29.3522 19.3128 27.4865C18.4961 26.5985 17.9179 25.493 17.2587 24.4709C17.0616 24.1646 16.9576 23.8004 16.6998 23.2168ZM22.4625 21.0421C23.1844 20.8509 23.9274 20.7123 24.6234 20.4531C25.2624 20.2157 25.6905 19.7074 25.6749 18.9943C25.6601 18.2956 25.2228 17.8308 24.6225 17.5064C23.4965 16.8984 22.2811 17.1521 21.1091 18.3074C21.33 18.7324 21.575 19.1909 21.8088 19.6548C22.0427 20.1188 22.2692 20.5981 22.504 21.0702C21.7969 21.2759 21.0253 21.3674 20.3974 21.7127C19.1848 22.3778 19.2336 23.7823 20.4167 24.5081C21.5998 25.2339 23.0048 24.9485 24.1226 23.6853L22.4625 21.0421Z" fill="#a47c4b"/>
<path d="M12.9323 5.72311C12.2491 5.67418 11.8863 5.66693 11.5282 5.61891C6.24791 4.9085 1.57624 9.40472 2.20048 14.6032C2.53101 17.3605 5.14674 19.0432 7.8481 18.2549C8.99424 17.9288 10.0288 17.3024 10.8413 16.4426C11.9379 15.2792 12.9663 14.0514 13.9846 12.8181C15.1079 11.4589 16.2026 10.087 17.7678 9.16822C19.6534 8.06002 21.1026 8.10986 22.8271 9.44006C24.1023 10.4259 25.0967 11.6247 25.731 13.4207C25.2799 13.1488 25.069 13.0138 24.8545 12.887C22.8345 11.6954 20.9875 11.738 19.2032 13.2703C17.998 14.3105 16.9364 15.5338 15.9236 16.7616C14.6291 18.3292 13.3567 19.8923 11.6414 21.0512C8.17312 23.3926 5.30787 23.0737 2.49694 19.991C-1.54037 15.5637 -0.551527 8.30196 4.5225 5.29089C6.91635 3.86645 9.40226 3.8139 11.9167 5.00999C12.1883 5.14047 12.4204 5.35976 12.9323 5.72311Z" fill="#a47c4b"/>
<path d="M2.53747 13.2486C2.86432 13.5485 3.04294 13.7442 3.25194 13.9001C4.35679 14.721 5.39904 14.8062 6.50941 14.0142C7.2519 13.4923 7.92741 12.8838 8.52116 12.202C9.81015 10.7087 10.9555 9.1012 12.2629 7.62874C13.1763 6.60118 14.1762 5.60897 15.2856 4.79889C17.2062 3.39711 19.2391 3.59193 21.0106 5.14956C22.074 6.0856 22.7599 7.13852 23.4044 8.88826C23.0186 8.65629 22.7802 8.50949 22.538 8.36723C20.6534 7.25903 18.742 7.35327 16.976 8.65991C15.455 9.78533 14.2627 11.217 13.1468 12.7148C12.0613 14.1719 10.8883 15.5392 9.39675 16.6221C8.49814 17.2745 7.52956 17.6188 6.40353 17.5907C3.98667 17.5219 2.50433 15.9678 2.53747 13.2486Z" fill="#a47c4b"/>
<path d="M28.8744 10.6153C28.2483 9.97558 27.7622 9.50167 27.3028 9.00511C26.4888 8.12526 26.5017 7.53265 27.3331 6.67183C27.7382 6.25319 28.1516 5.84272 28.5577 5.42499C28.5917 5.39056 28.5936 5.32622 28.623 5.23924C28.6829 4.44637 27.9979 4.10385 27.5182 3.63357C26.4133 2.55437 26.4133 2.09315 27.5237 1.0058C27.9021 0.637908 28.3128 0.302638 28.6543 -0.000915527C29.2657 0.656935 29.819 1.27945 30.4037 1.87296C31.4275 2.91501 31.4855 3.67797 30.5547 4.78255C30.1864 5.22564 29.761 5.62887 29.2491 6.17074C29.6377 6.57125 29.9857 6.93913 30.3475 7.29977C31.4524 8.4125 31.5095 9.32407 30.4746 10.4812C30.1256 10.8717 29.6459 11.1517 29.3771 11.3656C29.4121 12.3496 30.0584 12.5599 30.4461 12.9613C31.3787 13.9254 31.468 14.7355 30.6164 15.7703C30.1864 16.2913 29.6294 16.7108 29.0374 17.2618C28.8726 16.6909 28.8274 16.2188 28.6056 15.8509C28.3653 15.454 27.9693 15.145 27.6241 14.8143C26.3885 13.6273 26.3986 13.2386 27.6747 11.9727C28.043 11.603 28.3671 11.1907 28.8744 10.6153Z" fill="#a47c4b"/>
<path d="M16.2975 30.2403C15.6631 29.6123 15.2147 29.1738 14.7709 28.7298C13.8429 27.801 13.8373 27.2491 14.7709 26.3077C15.1816 25.8954 15.6254 25.5157 16.0424 25.1297C16.5949 25.7549 17.0782 26.3575 17.6187 26.9075C18.8156 28.1217 18.8497 28.9255 17.7108 30.204C17.3637 30.5946 17 30.9706 16.5498 31.4554C16.9963 31.8813 17.3784 32.2347 17.7467 32.6026C18.8027 33.6546 18.8313 34.5308 17.8323 35.6553C17.578 35.9288 17.3038 36.1838 17.012 36.4183C16.8177 36.5814 16.593 36.7091 16.1667 36.9991C16.3325 35.7196 15.6502 35.0808 14.9348 34.423C13.7674 33.3501 13.8116 32.84 15.0002 31.681C15.4108 31.2878 15.7653 30.8392 16.2975 30.2403Z" fill="#a47c4b"/>
<path d="M16.5746 23.4851C10.1932 28.5993 6.26266 28.1217 3.93695 21.8069C4.11189 21.8414 4.27209 21.8241 4.34759 21.8975C6.66962 24.0568 10.0026 23.6192 12.2371 21.6973C13.5694 20.5492 14.6936 19.1601 15.8979 17.8734C16.9963 16.6954 17.9778 15.3906 19.1876 14.3395C21.4093 12.4094 23.6991 12.491 25.7366 14.6168C26.7954 15.7204 27.5403 17.115 28.4987 18.4751C30.8824 16.5867 33.2321 13.8194 36.9803 15.2275C39.3585 16.121 40.5499 18.2712 41.5617 20.5084C41.3389 20.5565 41.2063 20.6208 41.1686 20.5864C38.4985 18.1525 35.8285 17.8888 33.0212 20.1469C31.4174 21.4354 30.1818 23.1643 28.7482 24.6649C27.6747 25.7885 26.661 27.0126 25.4217 27.9269C23.3602 29.451 21.0944 29.2254 19.345 27.3452C18.3 26.2216 17.5358 24.8479 16.5746 23.4851ZM23.9348 23.6899C22.4754 20.8355 22.0805 20.609 20.4241 21.6556C19.5816 22.1875 19.3413 22.9124 19.8772 23.7614C20.6294 24.953 22.4082 24.9376 23.9348 23.6899ZM21.1956 18.1625C22.2738 20.802 22.8225 21.1708 24.4181 20.3915C25.4594 19.8814 25.7688 19.0994 25.256 18.2748C24.4853 17.0452 22.8621 16.9772 21.1956 18.1661V18.1625Z" fill="#a47c4b"/>
</g>
<defs>
<clipPath id="clip0_29_331">
<rect width="42" height="37" fill="#a47c4b"/>
</clipPath>
</defs>
</svg>
